<svg xmlns="http://www.w3.org/2000/svg" fill-rule="evenodd" stroke-linejoin="round" stroke-miterlimit="2" clip-rule="evenodd" viewBox="0 0 511 511" width="30" height="30"><defs><linearGradient id="linearGradient_0.3155992138971291" x1="0%" x2="100%" y1="0%" y2="0%" gradientUnits="userSpaceOnUse"><stop offset="0%" stop-color="#F15A24"></stop><stop offset="21%" stop-color="#F15A24"></stop><stop offset="68%" stop-color="#FBB03B"></stop><stop offset="100%" stop-color="#FBB03B"></stop></linearGradient><linearGradient id="linearGradient_0.25106754736768" x1="0%" x2="100%" y1="0%" y2="0%" gradientUnits="userSpaceOnUse"><stop offset="0%" stop-color="#ED1E79"></stop><stop offset="21%" stop-color="#ED1E79"></stop><stop offset="89%" stop-color="#522785"></stop><stop offset="100%" stop-color="#522785"></stop></linearGradient></defs><path fill="#E3E3E3" fill-rule="nonzero" d="M399.8 555.1c141.1 0 255.5-114.4 255.5-255.5S540.9 44.1 399.8 44.1 144.3 158.5 144.3 299.6s114.4 255.5 255.5 255.5z" transform="translate(-144.3 -44.1)"></path><path fill="url(#linearGradient_0.3155992138971291)" fill-rule="nonzero" d="M488.6 213.2c-19.3 0-40.3 10.5-62.6 31.1-10.5 9.7-19.7 20.3-26.5 28.6 0 0 10.8 12.4 22.6 25.7 6.5-8.1 15.6-19 26.3-28.9 19.7-18.4 32.6-22.2 40.1-22.2 27.7 0 50.3 23.3 50.3 52 0 28.4-22.5 51.7-50.3 52-1.3 0-2.9-.2-4.8-.6 8.1 3.7 16.9 6.4 25 6.4 50.8 0 60.9-35.1 61.4-37.6 1.4-6.4 2.3-13.2 2.3-20.1 0-47.6-37.6-86.4-83.8-86.4z" transform="translate(-144.3 -44.1)"></path><path fill="url(#linearGradient_0.25106754736768)" fill-rule="nonzero" d="M311 386c19.3 0 40.3-10.5 62.6-31.1 10.5-9.7 19.7-20.3 26.5-28.6 0 0-10.8-12.4-22.6-25.7-6.5 8.1-15.6 19-26.3 28.9-19.7 18.3-32.7 22.2-40.1 22.2-27.7 0-50.3-23.3-50.3-52 0-28.4 22.5-51.7 50.3-52 1.3 0 2.9.2 4.8.6-8.1-3.7-16.9-6.4-25-6.4-50.8-.1-60.9 35-61.4 37.6-1.4 6.4-2.3 13.2-2.3 20.1-.1 47.5 37.4 86.4 83.8 86.4z" transform="translate(-144.3 -44.1)"></path><path fill="#29ABE2" d="M349.7 270.6c-5.6-5.4-32.7-27.4-58.7-28.2-46.4-1.2-60 32.5-61.2 36.8 9-37.7 42.1-65.8 81.4-66 32.1 0 64.5 31.4 88.5 59.8l.1-.1s10.8 12.4 22.6 25.7c0 0 13.5 15.9 27.7 29.8 5.6 5.4 32.6 27.1 58.6 27.9 47.7 1.3 60.9-34.2 61.5-36.9-8.8 38-42 66.2-81.5 66.4-32.1 0-64.5-31.4-88.6-59.8 0 .1-.1.1-.1.2 0 0-10.8-12.4-22.6-25.7.1 0-13.4-16-27.7-29.9zm-120 9c0-.1 0-.2.1-.3-.1.1-.1.2-.1.3z" transform="translate(-144.3 -44.1)"></path></svg>
